<svg width="1438" height="898" viewBox="0 0 1438 898" fill="none" xmlns="http://www.w3.org/2000/svg">
<path d="M1015.08 503.685L876.29 235.078H902.294M862.042 209.747L859.931 248.271M862.042 209.747L736.973 -33.0022M862.042 209.747H832.49M862.042 209.747L872.069 227.162H898.768M-8.68972 209.747H53.5808H84.7161H113.74H143.82H166.512H193.953H217.173H252.53H282.082H308.468H338.02H363.878H391.847H425.093H452.006M859.931 248.271H836.712V824.537H824.574M859.931 248.271L858.348 824.537M859.931 248.271L1007.16 503.685V655.667L921.674 751.712M824.574 824.537L778.663 867.282L-30.8538 868.337V846.701L778.663 843.534M824.574 824.537V808.034M778.663 843.534H782.357M778.663 843.534L778.804 836.146M782.357 843.534L786.051 645.641M782.357 843.534L824.574 808.034M831.435 638.253L828.796 804.483L824.574 808.034M831.435 638.253L786.051 645.641M831.435 638.253H312.689M786.051 645.641L782.357 649.863L782.297 653.029M786.051 645.641L198.175 647.752M778.804 836.146L199.23 839.84M778.804 836.146L779.34 808.034M199.23 839.84L204.508 653.029H396.069M199.23 839.84H192.37L194.888 794.457M199.23 839.84L275.222 813.455M782.297 653.029L780.897 726.381M782.297 653.029H636.707M198.175 647.752L195.431 770.182M198.175 647.752L312.689 638.253M194.888 794.457H1.33688M194.888 794.457L195.089 785.486M195.089 785.486H1.33688M195.089 785.486L195.431 770.182M195.431 770.182C190.013 770.534 179.072 769.549 178.65 762.794C178.561 761.382 178.532 757.199 178.567 751.184M312.689 638.253C314.273 637.021 315.117 634.559 305.829 634.559C302.837 634.559 293.64 634.664 281.554 634.91M838.823 824.537H858.348M858.348 824.537L898.454 779.681V771.237M921.674 751.712H915.341L898.454 771.237M921.674 751.712V745.907L923.257 465.162L900.565 444.581L898.454 771.237M396.069 653.029H400.818M396.069 653.029L394.434 722.687M396.069 832.98H391.847L392.305 813.455M396.069 832.98L400.818 653.029M396.069 832.98L468.893 810.816M400.818 653.029H468.893M468.893 810.816V746.962M468.893 810.816H586.812M468.893 746.962H403.984V742.213M468.893 746.962H586.574V742.213H403.984M403.984 742.213L468.893 728.492M588.685 653.029H593.435M588.685 653.029L587.814 726.381M588.685 653.029H468.893M593.435 653.029V830.869M593.435 653.029H636.707M593.435 830.869H586.574L586.812 810.816M593.435 830.869L636.707 808.034M275.222 813.455H392.305M275.222 813.455V746.962M392.305 813.455L394.434 722.687M275.222 746.962H393.958V740.102H206.618V746.962H275.222ZM586.812 810.816L587.814 726.381M208.202 739.047L292.636 720.049M292.636 720.049V655.667M292.636 720.049L394.434 722.687M468.893 728.492L587.814 726.381M468.893 728.492V653.029M597.656 740.102L636.707 728.492M597.656 740.102H780.636M597.656 740.102V745.907H636.707M636.707 728.492L780.897 726.381M636.707 728.492V653.029M780.897 726.381L780.636 740.102M780.636 740.102L780.525 745.907M780.525 745.907H636.707M780.525 745.907L779.34 808.034M636.707 808.034V745.907M636.707 808.034H779.34M281.554 634.91C246.747 635.62 187.98 637.502 184.454 641.419C180.499 645.814 178.74 721.219 178.567 751.184M281.554 634.91C210.664 633.796 66.9847 632.236 59.3856 634.91C58.1961 635.329 57.0148 636.498 55.8501 638.253M30.889 751.184C25.0841 749.073 32.4721 720.049 36.6938 704.745C40.3869 691.358 47.7143 650.511 55.8501 638.253M30.889 751.184C35.5329 752.873 131.276 751.888 178.567 751.184M30.889 751.184H-52.4902C-55.1288 712.543 -29.7984 635.192 -19.2441 634.91C-6.05118 634.559 56.5362 628.754 55.8501 638.253M989.222 477.299V523.211M993.971 486.271V527.96M999.248 495.242L998.193 531.126M989.222 529.543V571.761M993.971 533.237V572.816M993.971 581.787V618.727M989.222 579.149V620.838M989.222 629.282V670.444M995.554 663.055V626.643M1021.94 503.685L902.294 235.078M786.051 -33.0022L898.768 227.162M1028.8 502.63L930.402 235.078M836.712 -17.6984L927.491 227.162M1035.66 503.685L957.221 235.078M884.734 -17.6984L954.909 227.162M1043.05 503.685L985.651 235.078M930.402 -22.9756L983.96 227.162M1048.33 503.685L1011.68 235.078H985.651M978.667 -17.6984L1010.6 227.162H983.96M832.49 209.747L689.479 -33.0022M832.49 209.747H802.938M802.938 209.747L648.845 -22.9756M802.938 209.747H774.441M774.441 209.747L607.683 -17.6984M774.441 209.747H744.361M744.361 209.747L555.967 -22.9756M744.361 209.747H713.754M713.754 209.747L498.973 -33.0022M713.754 209.747H683.674M683.674 209.747L452.006 -33.0022M683.674 209.747H656.233M656.233 209.747L414.011 -33.0022M656.233 209.747H624.57M624.57 209.747L363.878 -43.5565M624.57 209.747H594.49M594.49 209.747L305.829 -43.5565M594.49 209.747H564.41M564.41 209.747L246.197 -52M564.41 209.747H539.08M539.08 209.747L217.173 -33.0022M539.08 209.747H512.166M186.565 -22.9756L512.166 209.747M512.166 209.747H484.725M113.74 -43.5565L484.725 209.747M484.725 209.747H452.006M101.603 -17.6984L452.006 209.747M1090.54 627.698L1088.96 561.734H1035.66V626.643L1055.19 626.765M1090.54 627.698L1072.86 627.232M1090.54 627.698L1244.11 899.781M1013.5 551.707V645.641M1019.83 558.568V638.253M1013.5 507.379H1048.33M1015.08 511.073H1024.05M1026.69 529.543H1028.8M1026.69 533.237H1052.02M1018.25 511.601L1028.8 529.543M1028.8 529.543H1037.77M1024.05 511.073L1033.02 529.016M1024.05 511.073H1031.44M1031.44 511.073L1037.77 529.543M1031.44 511.073H1036.72M1037.77 529.543H1042.52M1036.72 511.073L1042.52 529.543M1036.72 511.073H1042.52M1042.52 529.543H1047.27M1042.52 511.073H1048.33L1052.02 529.543H1047.27M1042.52 511.073L1047.27 529.543M1212.97 751.712L1127.48 655.667V503.685L1274.72 248.271L1276.3 824.537L1236.19 779.681V771.237M1212.97 751.712H1219.31L1236.19 771.237M1212.97 751.712V745.907L1211.39 465.162L1234.08 444.581L1236.19 771.237M1145.43 477.299V523.211M1140.68 486.271V527.96M1135.4 495.242L1136.45 531.126M1145.43 529.543V571.761M1140.68 533.237V572.816M1140.68 581.787V618.727M1145.43 579.149V620.838M1145.43 629.282V670.444M1139.09 663.055V626.643M1107.96 502.63L1353.87 -22.9756M1097.93 502.63L1307.43 -22.9756M1121.15 551.707V645.641M1114.82 558.568V638.253M1121.15 507.379H1086.32M1119.57 511.073H1110.6M1107.96 529.543H1105.85M1107.96 533.237H1082.63M1116.4 511.601L1105.85 529.543M1105.85 529.543H1096.88M1110.6 511.073L1101.63 529.016M1110.6 511.073H1103.21M1103.21 511.073L1096.88 529.543M1103.21 511.073H1097.93M1096.88 529.543H1092.13M1097.93 511.073L1092.13 529.543M1097.93 511.073H1092.13M1092.13 529.543H1087.38M1092.13 511.073H1086.32L1082.63 529.543H1087.38M1092.13 511.073L1087.38 529.543M898.768 227.162H927.491M927.491 227.162H954.909M954.909 227.162H983.96M985.651 235.078H957.221M957.221 235.078H930.402M930.402 235.078H902.294M1041.99 626.765L884.206 899.781M1055.19 626.765L1006.11 899.781M1055.19 626.765L1072.86 627.232M1072.86 627.232L1127.48 899.781M864.681 804.483L890.539 774.404V672.554L864.681 682.053V804.483ZM864.681 669.388L891.594 658.306V551.707L864.681 546.958V669.388ZM864.681 534.82L893.177 542.736V437.721L864.681 412.918V534.82ZM864.681 398.67L893.177 427.694V320.568L864.681 273.073V398.67ZM900.565 432.443V327.956L923.257 364.896V455.663L900.565 432.443ZM925.896 370.701V461.468L957.559 492.075V423.472L925.896 370.701ZM925.896 467.273L957.559 499.463V563.845L925.896 554.346V467.273ZM925.896 561.734L957.559 568.594V634.559L924.313 645.641L925.896 561.734ZM924.313 653.029L957.559 640.364V705.273L924.313 740.102V653.029ZM960.725 701.579L975.501 685.747V634.559L960.725 640.364V701.579ZM960.725 632.976L975.501 627.698V573.871L960.725 570.177V632.976ZM960.725 563.845L975.501 568.594V514.767L961.78 502.63L960.725 563.845ZM961.78 495.242L975.501 509.49V453.024L960.725 429.277L961.78 495.242ZM980.25 682.053L985 672.554V523.738L980.25 520.572V680.47V682.053ZM978.667 511.073L983.417 516.35V466.217L978.667 459.357V511.073ZM1000.83 533.765L1005.58 538.514L1006.11 503.685L1000.83 496.825V533.237V533.765ZM1000.3 539.042L1005.58 543.792V579.149L1000.83 575.982L1000.3 539.042ZM1000.83 579.676L1005.58 582.843V616.089L1000.83 618.727V579.676ZM1000.83 622.421L1005.58 619.255V654.612L1000.83 660.417V622.421ZM1269.97 804.483L1244.11 774.404V672.554L1269.97 682.053V804.483ZM1269.97 669.388L1244.11 658.306L1241.47 554.346L1269.97 546.958V669.388ZM1269.97 534.82L1241.47 542.736V437.721L1269.97 412.918V534.82ZM1269.97 398.67L1241.47 427.694V320.568L1269.97 273.073V398.67ZM1234.08 432.443V327.956L1211.39 364.896V455.663L1234.08 432.443ZM1208.75 370.701V461.468L1177.09 492.075V423.472L1208.75 370.701ZM1208.75 468.856L1177.09 499.463V563.845L1208.75 554.346V468.856ZM1208.75 561.734L1177.09 568.594V634.559L1210.33 645.641L1208.75 561.734ZM1210.33 653.029L1177.09 640.364V705.273L1210.33 740.102V653.029ZM1173.92 701.579L1159.15 685.747V634.559L1173.92 640.364V701.579ZM1173.92 632.976L1159.15 627.698V573.871L1173.92 570.177V632.976ZM1173.92 563.845L1159.15 568.594V514.767L1172.87 502.63L1173.92 563.845ZM1172.87 495.242L1159.15 509.49V453.024L1173.92 429.277L1172.87 495.242ZM1154.4 682.053L1149.65 672.554V523.738L1154.4 520.572V680.47V682.053ZM1155.98 511.073L1151.23 516.35V466.217L1155.98 459.357V511.073ZM1133.82 533.765L1129.07 538.514L1128.54 503.685L1133.82 496.825V533.237V533.765ZM1134.34 539.042L1129.07 543.792V579.149L1133.82 575.982L1134.34 539.042ZM1133.82 579.676L1129.07 582.843V616.089L1133.82 618.727V579.676ZM1133.82 622.421L1129.07 619.255V654.612L1133.82 660.417V622.421Z" stroke="url(#paint0_linear_3_270)" stroke-width="2" stroke-linecap="round" stroke-linejoin="round"/>
<defs>
<linearGradient id="paint0_linear_3_270" x1="-132.551" y1="556.984" x2="1293.3" y2="556.984" gradientUnits="userSpaceOnUse">
<stop offset="0.547744" stop-color="#24C647" stop-opacity="0.57"/>
<stop offset="1" stop-color="#24C647" stop-opacity="0"/>
</linearGradient>
</defs>
</svg>
